{
  "source": "C:\\Users\\Peter\\Desktop\\stuff\\MIUN\\quantitative_research\\video_compression\\videos\\BVI-HD\\BVI-HD_CDVL_videos\\ORIG\\Surfers_1920x1080_30fps.mp4",
  "output": "C:\\Users\\Peter\\Desktop\\stuff\\MIUN\\quantitative_research\\video_compression\\compressed_videos\\BVI-HD\\vp9\\8\\Surfers_1920x1080_30fps_vp9.webm",
  "codec": "vp9",
  "ok": "Input #0, mov,mp4,m4a,3gp,3g2,mj2, from 'C:\\Users\\Peter\\Desktop\\stuff\\MIUN\\quantitative_research\\video_compression\\videos\\BVI-HD\\BVI-HD_CDVL_videos\\ORIG\\Surfers_1920x1080_30fps.mp4':\n  Metadata:\n    major_brand     : isom\n    minor_version   : 512\n    compatible_brands: isomiso2avc1mp41\n    encoder         : Lavf54.28.101\n  Duration: 00:00:05.00, start: 0.000000, bitrate: 232762 kb/s\n  Stream #0:0[0x1](und): Video: h264 (High 4:4:4 Predictive) (avc1 / 0x31637661), yuv420p(progressive), 1920x1080, 232759 kb/s, 30 fps, 30 tbr, 30 tbn (default)\n    Metadata:\n      handler_name    : VideoHandler\n      vendor_id       : [0][0][0][0]\n[out#0/webm @ 0000019c4f981280] Codec AVOption b:a (set bitrate (in bits/s)) has not been used for any stream. The most likely reason is either wrong type (e.g. a video option with no video streams) or that it is a private option of some decoder which was not actually used for any stream.\nStream mapping:\n  Stream #0:0 -> #0:0 (h264 (native) -> vp9 (libvpx-vp9))\nPress [q] to stop, [?] for help\n[libvpx-vp9 @ 0000019c4ff602c0] v1.15.2-100-g40561f514\nOutput #0, webm, to 'C:\\Users\\Peter\\Desktop\\stuff\\MIUN\\quantitative_research\\video_compression\\compressed_videos\\BVI-HD\\vp9\\8\\Surfers_1920x1080_30fps_vp9.webm':\n  Metadata:\n    major_brand     : isom\n    minor_version   : 512\n    compatible_brands: isomiso2avc1mp41\n    encoder         : Lavf62.3.100\n  Stream #0:0(und): Video: vp9, yuv420p(tv, progressive), 1920x1080, q=2-31, 8000 kb/s, 30 fps, 1k tbn (default)\n    Metadata:\n      encoder         : Lavc62.11.100 libvpx-vp9\n      handler_name    : VideoHandler\n      vendor_id       : [0][0][0][0]\n    Side data:\n      cpb: bitrate max/min/avg: 0/0/0 buffer size: 8000000 vbv_delay: N/A\nframe=    0 fps=0.0 q=0.0 size=       0KiB time=N/A bitrate=N/A speed=N/A elapsed=0:00:00.52    \nframe=    4 fps=3.6 q=48.0 size=       1KiB time=00:00:00.13 bitrate=  38.0kbits/s speed=0.12x elapsed=0:00:01.11    \nframe=    9 fps=5.5 q=38.0 size=       1KiB time=00:00:00.30 bitrate=  16.9kbits/s speed=0.182x elapsed=0:00:01.64    \nframe=   12 fps=5.5 q=38.0 size=       1KiB time=00:00:00.40 bitrate=  12.7kbits/s speed=0.185x elapsed=0:00:02.16    \nframe=   16 fps=6.0 q=40.0 size=       1KiB time=00:00:00.53 bitrate=   9.5kbits/s speed=0.199x elapsed=0:00:02.68    \nframe=   20 fps=6.2 q=40.0 size=       1KiB time=00:00:00.66 bitrate=   7.6kbits/s speed=0.208x elapsed=0:00:03.20    \nframe=   23 fps=6.1 q=39.0 size=       1KiB time=00:00:00.76 bitrate=   6.6kbits/s speed=0.204x elapsed=0:00:03.74    \nframe=   27 fps=6.3 q=42.0 size=       1KiB time=00:00:00.90 bitrate=   5.6kbits/s speed=0.211x elapsed=0:00:04.27    \nframe=   30 fps=6.3 q=41.0 size=       1KiB time=00:00:01.00 bitrate=   5.1kbits/s speed=0.209x elapsed=0:00:04.79    \nframe=   35 fps=6.6 q=40.0 size=       1KiB time=00:00:01.16 bitrate=   4.3kbits/s speed=0.22x elapsed=0:00:05.30    \nframe=   39 fps=6.7 q=39.0 size=       1KiB time=00:00:01.30 bitrate=   3.9kbits/s speed=0.223x elapsed=0:00:05.83    \nframe=   43 fps=6.7 q=40.0 size=       1KiB time=00:00:01.43 bitrate=   3.5kbits/s speed=0.225x elapsed=0:00:06.37    \nframe=   46 fps=6.7 q=41.0 size=       1KiB time=00:00:01.53 bitrate=   3.3kbits/s speed=0.222x elapsed=0:00:06.91    \nframe=   50 fps=6.7 q=36.0 size=       1KiB time=00:00:01.66 bitrate=   3.0kbits/s speed=0.224x elapsed=0:00:07.43    \nframe=   54 fps=6.8 q=36.0 size=       1KiB time=00:00:01.80 bitrate=   2.8kbits/s speed=0.226x elapsed=0:00:07.95    \nframe=   58 fps=6.8 q=41.0 size=       1KiB time=00:00:01.93 bitrate=   2.6kbits/s speed=0.228x elapsed=0:00:08.48    \nframe=   62 fps=6.9 q=39.0 size=       1KiB time=00:00:02.06 bitrate=   2.5kbits/s speed=0.229x elapsed=0:00:09.02    \nframe=   66 fps=6.9 q=37.0 size=       1KiB time=00:00:02.20 bitrate=   2.3kbits/s speed=0.23x elapsed=0:00:09.55    \nframe=   70 fps=6.9 q=38.0 size=       1KiB time=00:00:02.33 bitrate=   2.2kbits/s speed=0.231x elapsed=0:00:10.09    \nframe=   74 fps=7.0 q=39.0 size=       1KiB time=00:00:02.46 bitrate=   2.1kbits/s speed=0.232x elapsed=0:00:10.64    \nframe=   77 fps=6.9 q=37.0 size=       1KiB time=00:00:02.56 bitrate=   2.0kbits/s speed=0.23x elapsed=0:00:11.15    \nframe=   81 fps=6.9 q=22.0 size=       1KiB time=00:00:02.70 bitrate=   1.9kbits/s speed=0.231x elapsed=0:00:11.67    \nframe=   85 fps=7.0 q=39.0 size=       1KiB time=00:00:02.83 bitrate=   1.8kbits/s speed=0.232x elapsed=0:00:12.19    \nframe=   88 fps=6.9 q=38.0 size=       1KiB time=00:00:02.93 bitrate=   1.7kbits/s speed=0.231x elapsed=0:00:12.71    \nframe=   92 fps=6.9 q=41.0 size=       1KiB time=00:00:03.06 bitrate=   1.7kbits/s speed=0.232x elapsed=0:00:13.24    \nframe=   95 fps=6.9 q=40.0 size=       1KiB time=00:00:03.16 bitrate=   1.6kbits/s speed=0.23x elapsed=0:00:13.76    \nframe=   98 fps=6.9 q=40.0 size=       1KiB time=00:00:03.26 bitrate=   1.6kbits/s speed=0.228x elapsed=0:00:14.29    \nframe=  102 fps=6.9 q=39.0 size=       1KiB time=00:00:03.40 bitrate=   1.5kbits/s speed=0.23x elapsed=0:00:14.80    \nframe=  106 fps=6.9 q=39.0 size=       1KiB time=00:00:03.53 bitrate=   1.4kbits/s speed=0.231x elapsed=0:00:15.32    \nframe=  110 fps=6.9 q=39.0 size=       1KiB time=00:00:03.66 bitrate=   1.4kbits/s speed=0.231x elapsed=0:00:15.87    \nframe=  113 fps=6.9 q=39.0 size=       1KiB time=00:00:03.76 bitrate=   1.3kbits/s speed=0.229x elapsed=0:00:16.42    \nframe=  116 fps=6.8 q=43.0 size=       1KiB time=00:00:03.86 bitrate=   1.3kbits/s speed=0.228x elapsed=0:00:16.95    \nframe=  119 fps=6.8 q=42.0 size=       1KiB time=00:00:03.96 bitrate=   1.3kbits/s speed=0.226x elapsed=0:00:17.52    \nframe=  121 fps=6.7 q=42.0 size=       1KiB time=00:00:04.03 bitrate=   1.3kbits/s speed=0.222x elapsed=0:00:18.14    \nframe=  123 fps=6.6 q=39.0 size=       1KiB time=00:00:04.06 bitrate=   1.2kbits/s speed=0.217x elapsed=0:00:18.75    \nframe=  124 fps=6.4 q=38.0 size=       1KiB time=00:00:04.13 bitrate=   1.2kbits/s speed=0.214x elapsed=0:00:19.35    \nframe=  126 fps=6.3 q=40.0 size=       1KiB time=00:00:04.20 bitrate=   1.2kbits/s speed=0.211x elapsed=0:00:19.86    \nframe=  126 fps=6.2 q=40.0 size=       1KiB time=00:00:04.20 bitrate=   1.2kbits/s speed=0.206x elapsed=0:00:20.39    \nframe=  126 fps=6.0 q=40.0 size=       1KiB time=00:00:04.20 bitrate=   1.2kbits/s speed=0.201x elapsed=0:00:20.91    \nframe=  126 fps=5.9 q=40.0 size=       1KiB time=00:00:04.20 bitrate=   1.2kbits/s speed=0.196x elapsed=0:00:21.43    \nframe=  126 fps=5.7 q=40.0 size=       1KiB time=00:00:04.20 bitrate=   1.2kbits/s speed=0.191x elapsed=0:00:21.99    \nframe=  126 fps=5.6 q=40.0 size=       1KiB time=00:00:04.20 bitrate=   1.2kbits/s speed=0.186x elapsed=0:00:22.55    \nframe=  126 fps=5.5 q=40.0 size=       1KiB time=00:00:04.20 bitrate=   1.2kbits/s speed=0.182x elapsed=0:00:23.08    \nframe=  126 fps=5.3 q=40.0 size=       1KiB time=00:00:04.20 bitrate=   1.2kbits/s speed=0.178x elapsed=0:00:23.61    \nframe=  126 fps=5.2 q=40.0 size=       1KiB time=00:00:04.20 bitrate=   1.2kbits/s speed=0.174x elapsed=0:00:24.20    \n[out#0/webm @ 0000019c4f981280] video:3873KiB audio:0KiB subtitle:0KiB other streams:0KiB global headers:0KiB muxing overhead: 0.046923%\nframe=  150 fps=6.1 q=40.0 Lsize=    3875KiB time=00:00:05.00 bitrate=6348.7kbits/s speed=0.203x elapsed=0:00:24.57    \n",
  "seconds": 24.885820388793945,
  "probe_out": {}
}